<?xml version="1.0" standalone="no"?>
<!DOCTYPE svg PUBLIC "-//W3C//DTD SVG 20010904//EN"
 "http://www.w3.org/TR/2001/REC-SVG-20010904/DTD/svg10.dtd">
<svg version="1.0" xmlns="http://www.w3.org/2000/svg"
 width="431.000000pt" height="431.000000pt" viewBox="0 0 431.000000 431.000000"
 preserveAspectRatio="xMidYMid meet">

<g transform="translate(0.000000,431.000000) scale(0.100000,-0.100000)"
fill="#000000" stroke="none">
<path d="M0 2150 l0 -2150 2155 0 2155 0 0 2150 0 2150 -2155 0 -2155 0 0
-2150z m2554 1355 c-5 -37 -3 -45 9 -45 8 0 17 5 19 11 2 7 12 7 31 0 16 -6
56 -11 91 -11 34 0 66 -4 72 -10 5 -5 40 -12 76 -14 51 -3 73 -10 90 -26 30
-28 59 -34 121 -25 86 13 107 13 113 4 3 -5 48 -9 100 -9 56 0 94 -4 94 -10 0
-5 23 -10 50 -10 28 0 50 5 50 10 0 6 7 10 15 10 17 0 20 -16 5 -25 -5 -3 -10
-17 -10 -30 0 -17 8 -26 30 -34 19 -6 30 -17 30 -29 0 -24 101 -93 132 -89 18
2 23 -4 28 -33 4 -19 12 -45 18 -57 7 -13 10 -34 6 -48 -4 -18 -2 -25 9 -25 8
0 17 9 20 21 8 30 32 18 32 -17 1 -16 4 -37 9 -46 9 -21 36 -24 36 -5 0 6 7
-1 15 -17 8 -15 15 -37 15 -47 0 -10 4 -20 9 -24 5 -3 12 -19 16 -35 5 -25 11
-30 36 -30 26 0 29 -3 23 -24 -7 -29 22 -75 47 -76 27 0 36 -21 41 -87 5 -67
13 -86 28 -63 9 14 15 6 11 -14 -5 -26 12 -58 37 -68 26 -11 26 -12 5 -15 -27
-5 -28 -19 -10 -88 10 -41 10 -55 0 -75 -7 -14 -13 -33 -13 -42 0 -10 -4 -18
-10 -18 -5 0 -10 -11 -10 -25 0 -14 5 -25 10 -25 6 0 10 -16 10 -35 0 -19 -4
-35 -9 -35 -5 0 -8 -52 -7 -115 0 -63 4 -115 9 -115 4 0 7 -27 7 -60 0 -33 -4
-60 -9 -60 -8 0 -24 -37 -22 -52 0 -4 -8 -10 -19 -13 -16 -5 -20 -14 -18 -39
1 -17 -2 -37 -6 -44 -4 -7 -2 -19 4 -27 10 -12 7 -17 -15 -25 -15 -6 -32 -7
-37 -4 -8 5 -9 -4 -5 -28 4 -30 2 -37 -13 -41 -11 -3 -22 -18 -26 -33 -9 -38
-31 -58 -80 -75 -45 -15 -74 -37 -74 -55 0 -17 -21 -23 -43 -12 -13 7 -24 5
-36 -6 -10 -9 -26 -16 -37 -16 -10 0 -26 -5 -34 -10 -13 -9 -13 -11 0 -19 8
-6 12 -13 8 -16 -3 -4 -15 -1 -26 6 -18 11 -24 10 -40 -4 -10 -9 -28 -17 -39
-17 -11 0 -26 -7 -33 -15 -16 -19 -30 -10 -30 20 0 18 -7 25 -30 30 -43 9 -90
-3 -90 -23 1 -41 23 -107 40 -122 28 -24 28 -99 0 -123 -11 -9 -30 -17 -41
-17 -11 0 -35 -14 -52 -31 -17 -18 -33 -27 -35 -20 -8 23 -72 0 -72 -27 0 -12
-97 -21 -108 -10 -4 4 -23 -3 -42 -16 -58 -39 -78 -41 -90 -11 -5 14 -10 36
-10 48 0 12 -11 43 -24 70 l-23 48 31 33 c65 70 65 70 34 100 -13 12 -28 31
-34 41 -8 14 -25 20 -71 23 -38 3 -63 0 -67 -7 -4 -6 -15 -11 -24 -11 -9 0
-28 -16 -42 -35 -30 -41 -49 -43 -88 -10 -18 15 -36 23 -46 19 -24 -9 -107 82
-108 119 -1 15 -8 32 -16 36 -13 7 -13 14 -4 37 6 16 13 58 15 94 5 81 -12
130 -53 148 -16 7 -32 22 -35 33 -5 16 -13 19 -31 15 -24 -6 -24 -5 -25 61 -1
78 -2 81 -13 146 -6 35 -13 47 -26 47 -21 0 -43 43 -28 58 6 6 7 31 4 64 -8
66 -9 106 -3 186 3 44 0 72 -10 93 -13 26 -13 33 0 52 13 19 12 26 -1 55 -12
25 -21 32 -36 28 -23 -6 -57 11 -55 27 4 22 -13 52 -48 85 -38 36 -48 39 -57
17 -7 -20 -36 -8 -36 15 0 11 -4 22 -10 25 -5 3 -10 15 -10 25 0 13 -8 20 -27
22 -35 4 -43 28 -9 28 33 0 34 16 2 24 -14 3 -28 15 -31 26 -3 11 -11 20 -16
20 -13 0 -11 19 4 35 8 7 13 24 11 37 -1 12 -3 30 -3 39 -1 9 -10 19 -21 22
-27 7 -25 27 3 24 17 -2 22 3 22 23 0 19 -5 25 -20 23 -41 -3 -74 118 -40 147
19 16 19 49 1 56 -24 9 -27 34 -6 51 11 10 20 23 20 30 0 6 9 15 20 18 21 7
28 25 10 25 -5 0 -10 9 -10 19 0 22 35 51 61 51 9 0 19 7 23 15 8 21 56 20 56
-1 0 -17 22 -14 28 4 2 7 -3 12 -12 12 -9 0 -16 5 -16 10 0 14 50 34 78 31 17
-2 25 5 33 29 13 36 42 38 47 2 5 -30 32 -29 32 2 0 13 -6 27 -12 29 -10 4 -9
8 2 16 25 18 57 13 63 -10 5 -18 10 -20 39 -14 18 4 35 12 37 17 2 6 7 4 12
-3 7 -11 9 -10 9 4 0 14 9 17 44 17 26 0 51 -6 60 -15 20 -20 29 -19 44 5 22
35 34 24 26 -25z m476 -59 c0 -3 -4 -8 -10 -11 -5 -3 -10 -1 -10 4 0 6 5 11
10 11 6 0 10 -2 10 -4z m615 -226 c3 -5 -1 -10 -10 -10 -9 0 -13 5 -10 10 3 6
8 10 10 10 2 0 7 -4 10 -10z m344 -472 c1 -5 -3 -8 -9 -8 -5 0 -10 12 -9 28 0
24 1 25 9 7 5 -11 9 -23 9 -27z m-1731 -1491 c3 -29 9 -40 31 -52 16 -8 43
-26 60 -41 17 -14 31 -22 31 -18 0 4 9 -1 20 -11 11 -10 20 -26 20 -37 0 -11
7 -18 19 -18 26 0 45 -24 29 -37 -17 -14 -121 -8 -150 8 -13 7 -34 13 -47 14
-13 0 -34 13 -47 28 -13 15 -29 27 -35 27 -30 0 -49 33 -49 85 0 72 22 96 85
92 27 -2 30 -6 33 -40z m-958 -144 c0 -3 7 -14 16 -24 21 -23 12 -46 -21 -59
-14 -5 -25 -11 -25 -14 0 -2 -3 -11 -6 -20 -4 -12 0 -16 15 -16 12 0 21 5 21
10 0 6 13 10 29 10 26 0 29 -4 35 -43 4 -23 13 -55 21 -71 8 -16 15 -36 15
-46 0 -27 49 -80 73 -80 37 0 67 -12 67 -25 0 -19 36 -28 57 -16 16 9 15 11
-7 11 -14 1 -19 4 -12 7 6 2 12 13 12 24 0 10 7 19 15 19 8 0 15 3 16 8 0 4 2
37 4 74 2 36 8 75 14 86 6 12 11 38 11 60 0 36 2 40 40 52 40 13 41 13 70 -21
20 -24 29 -45 30 -71 0 -20 6 -38 13 -41 9 -3 9 -7 -2 -20 -11 -14 -11 -18 3
-23 9 -4 32 -4 51 -1 36 6 79 -16 59 -30 -6 -5 -14 -19 -17 -33 -3 -14 -10
-43 -16 -64 -8 -33 -6 -47 10 -83 11 -24 24 -41 29 -38 6 4 10 42 10 86 0 77
12 104 24 54 6 -24 26 -35 26 -14 0 5 5 7 11 3 8 -4 9 0 4 15 -5 18 -2 21 22
21 42 -1 68 -40 53 -84 -12 -39 -3 -79 12 -52 12 21 28 11 28 -17 1 -20 2 -20
16 6 17 32 50 47 100 47 24 0 34 -5 34 -15 0 -8 6 -15 14 -15 19 0 83 28 90
39 4 5 22 5 46 -1 36 -9 43 -8 55 8 14 18 14 18 15 -4 0 -38 40 -25 54 18 8
23 17 34 26 31 8 -3 27 -4 42 -3 26 1 43 -11 43 -32 0 -17 25 -18 31 -2 3 9
14 16 24 16 15 0 16 -6 10 -39 -4 -21 -3 -46 2 -55 5 -9 7 -25 3 -35 -5 -15 1
-19 35 -25 22 -3 49 -2 59 4 16 8 24 4 44 -23 30 -40 25 -53 -25 -62 -20 -4
-39 -13 -42 -21 -4 -9 -22 -14 -55 -14 -27 0 -53 -4 -56 -10 -3 -5 -19 -10
-35 -10 -16 0 -32 -4 -35 -10 -3 -5 -26 -10 -49 -10 -24 0 -59 -7 -79 -15 -19
-8 -37 -11 -41 -8 -3 4 -73 8 -154 9 -181 2 -303 12 -319 26 -7 6 -13 17 -13
25 0 11 -5 13 -17 8 -10 -4 -26 -9 -35 -12 -20 -6 -143 24 -172 42 -12 7 -37
15 -56 19 -19 3 -67 23 -107 43 -55 27 -72 41 -70 55 1 15 -10 24 -48 39 -27
10 -58 19 -67 19 -13 0 -18 8 -18 25 0 24 -3 25 -34 20 -29 -6 -37 -3 -51 18
-9 14 -29 30 -44 37 -38 15 -134 115 -136 140 -2 31 10 33 25 5 7 -14 21 -25
30 -25 9 0 22 -10 28 -22 10 -22 11 -22 13 -3 7 74 5 78 -31 91 -19 7 -28 13
-19 13 10 1 15 12 16 38 2 63 73 93 73 31 0 -10 -7 -21 -15 -24 -23 -9 -18
-34 6 -34 14 0 19 5 16 15 -4 8 -2 17 3 20 6 4 10 25 10 48 0 23 3 52 6 64 6
21 6 21 25 2 10 -10 19 -22 19 -26z m244 -5 c-11 -36 -25 -51 -38 -38 -8 8 -6
15 7 24 9 7 17 18 17 25 0 6 5 11 11 11 6 0 8 -9 3 -22z m-54 -34 c0 -8 -5
-12 -10 -9 -6 4 -8 11 -5 16 9 14 15 11 15 -7z m95 -54 c10 -16 -16 -43 -28
-31 -11 11 -2 41 12 41 5 0 13 -5 16 -10z m-527 -66 c-10 -10 -28 6 -28 24 0
15 1 15 17 -1 9 -9 14 -19 11 -23z m502 -49 c0 -30 -3 -35 -24 -35 -14 0 -28
-4 -31 -10 -3 -5 -13 -10 -21 -10 -20 0 -15 50 6 60 8 4 24 12 35 18 31 17 35
14 35 -23z m520 -41 c0 -8 -5 -12 -10 -9 -6 4 -8 11 -5 16 9 14 15 11 15 -7z
m170 -59 c0 -22 -4 -25 -34 -25 -37 0 -51 12 -42 35 3 9 19 15 41 15 31 0 35
-3 35 -25z m-116 -1 c9 -24 7 -27 -9 -10 -17 17 -19 26 -6 26 5 0 12 -7 15
-16z m321 -24 c3 -5 4 -14 0 -20 -8 -13 -35 -1 -35 16 0 16 26 19 35 4z m568
-194 c8 -21 -34 -36 -62 -21 -25 13 -13 32 14 21 8 -3 15 -1 15 4 0 15 27 12
33 -4z"/>
<path d="M2120 3415 c0 -9 6 -12 15 -9 8 4 15 10 15 15 0 5 -7 9 -15 9 -8 0
-15 -7 -15 -15z"/>
<path d="M3030 3320 c0 -5 14 -10 30 -10 17 0 30 5 30 10 0 6 -13 10 -30 10
-16 0 -30 -4 -30 -10z"/>
<path d="M3890 2764 c0 -31 23 -28 28 4 2 15 -2 22 -12 22 -11 0 -16 -9 -16
-26z"/>
<path d="M3874 1965 c-9 -14 -19 -23 -23 -20 -10 5 -51 -23 -51 -36 0 -16 39
-10 59 10 12 12 23 15 28 10 15 -15 36 17 28 41 -8 27 -21 25 -41 -5z"/>
<path d="M4000 1968 c0 -16 5 -28 10 -28 13 0 13 20 0 40 -8 12 -10 9 -10 -12z"/>
<path d="M3276 1205 c4 -8 15 -15 25 -15 10 0 19 7 19 15 0 9 -9 15 -25 15
-18 0 -23 -4 -19 -15z"/>
<path d="M1665 970 c-3 -6 -3 -20 1 -33 4 -12 6 -34 5 -49 -1 -16 2 -28 8 -28
6 0 11 16 11 35 0 24 5 35 15 35 22 0 19 27 -4 40 -24 13 -28 13 -36 0z"/>
<path d="M1245 950 c-10 -16 17 -112 37 -132 15 -15 17 -15 32 1 21 23 20 41
-4 71 -11 14 -20 35 -20 48 0 23 -33 32 -45 12z"/>
<path d="M1710 791 c0 -12 6 -21 15 -21 8 0 15 4 15 9 0 5 -7 14 -15 21 -13
10 -15 9 -15 -9z"/>
<path d="M1630 740 c0 -5 7 -10 15 -10 8 0 15 5 15 10 0 6 -7 10 -15 10 -8 0
-15 -4 -15 -10z"/>
<path d="M2571 683 c-7 -8 -10 -17 -7 -20 9 -9 29 13 25 25 -2 6 -10 3 -18 -5z"/>
<path d="M1957 673 c-13 -12 -7 -23 13 -23 11 0 20 -5 20 -12 0 -6 2 -9 5 -7
2 3 2 15 -2 27 -5 21 -23 29 -36 15z"/>
<path d="M2190 675 c0 -3 10 -17 23 -30 16 -18 29 -22 50 -18 15 3 27 12 27
20 0 11 -7 13 -25 9 -18 -5 -27 -2 -31 9 -6 14 -44 22 -44 10z"/>
<path d="M2636 653 c-12 -12 -5 -23 14 -23 11 0 20 4 20 9 0 11 -26 22 -34 14z"/>
<path d="M2071 591 c-1 -27 2 -32 11 -23 8 8 8 17 0 34 -10 22 -11 21 -11 -11z"/>
<path d="M2361 584 c0 -11 3 -14 6 -6 3 7 2 16 -1 19 -3 4 -6 -2 -5 -13z"/>
<path d="M2672 593 c-6 -2 -10 -9 -7 -13 7 -11 35 -2 35 11 0 10 -8 10 -28 2z"/>
<path d="M2072 530 c0 -14 2 -19 5 -12 2 6 2 18 0 25 -3 6 -5 1 -5 -13z"/>
</g>
</svg>
