<?xml version="1.0" standalone="no"?><!DOCTYPE svg PUBLIC "-//W3C//DTD SVG 1.1//EN" "http://www.w3.org/Graphics/SVG/1.1/DTD/svg11.dtd"><svg t="1681629342368" class="icon" viewBox="0 0 1445 1024" version="1.1" xmlns="http://www.w3.org/2000/svg" p-id="1587" xmlns:xlink="http://www.w3.org/1999/xlink" width="282.2265625" height="200"><path d="M186.90601416 337.32363574c-25.31541477 1.95619135-46.25816812 11.62207657-64.43923805 29.80314773-13.8084085 13.8084085-22.78387317 29.22779747-27.96202667 48.32942853-2.30140101 8.51518471-2.64661189 12.19742683-2.53154159 31.5291997 0 18.75642141 0.46027996 23.12908405 2.53154159 31.06891852 5.40829286 19.56191225 17.95093057 40.50466437 32.44975962 53.96786198 9.20560526 8.40011442 15.53445925 12.657708 26.81132616 17.95093056 23.81950461 11.16179661 56.269263 11.04672631 78.24764655-0.11507029 25.54555536-13.00291766 40.15945349-36.01693142 40.27452378-63.74881749 0-16.22487981-5.52336316-33.02510987-15.30431989-46.37323841l-3.6822421-4.83294261H193.69514812v48.32942854h9.78095673c8.28504534 0 10.12616639 0.34520966 12.08235653 2.30140223 2.87675126 2.87675126 2.87675126 4.71787232 0.11507029 8.16997382-2.07126164 2.64661189-2.99182156 2.76168219-14.15361817 2.7616822-15.87966893-0.11507029-22.89894347-2.76168219-32.6799002-12.54263771-9.32067555-9.32067555-12.19742683-16.57008947-12.88784737-32.44975961-1.03563022-23.35922343 7.70969509-38.77861361 27.27160612-48.09928795 7.24941392-3.33703244 8.28504534-3.56717181 21.4030333-3.56717181 12.31249712 0 14.61389812 0.34520966 21.05782243 3.10689185l7.13434361 3.10689185v-62.94332788l-3.6822421-1.2657708c-14.15361817-4.37266265-26.3510462-5.63843345-42.23071513-4.48773295zM678.14013763 405.79032678c0 67.20092023-0.57535025 75.60103466-4.94801289 83.77100971-2.99182156 5.52336316-10.58644636 9.78095551-17.49065062 9.78095551-8.63025501-0.11507029-18.29614145-6.55899338-21.1728927-14.15361815-1.72605076-4.48773294-1.61098047-12.77277708 0.34520966-17.26051003 4.94801291-11.62207657 20.71261275-16.22487981 31.4141294-9.20560526l2.64661068 1.72605075v-63.28853753l-2.53154039-0.69042055c-4.83294261-1.26577081-20.94275212-0.69042054-29.11272838 1.03563021-22.32359322 4.71787232-44.18690647 21.86331326-54.54321225 42.80606539-6.67406367 13.34812854-7.5946248 17.95093057-7.5946248 36.59228166 0.11507029 14.959109 0.46027996 18.29614145 2.64661191 24.74006574 7.82476417 21.97838355 25.20034448 40.27452379 46.2581681 48.67463821 11.2768669 4.48773294 17.72078998 5.63843345 31.06891852 5.75350374 14.959109 0 23.47429373-2.07126164 37.85805247-9.09053496 23.01401376-11.2768669 37.62791188-32.33468931 41.54029459-59.72136574 0.57535025-4.60280323 1.15070051-37.39777251 1.1507005-76.86680546V341.6962984h-57.5350338v64.09402838zM345.01228894 397.16007178c-3.10689185 0.57535025-9.8960258 3.10689185-15.0741793 5.52336315-15.99473922 7.70969509-27.616817 22.6688041-33.37031953 43.15127505-1.72605076 5.86857404-2.07126164 14.15361817-2.5315416 57.18982413l-0.34521088 50.40069018h58.68573552l0.34520967-43.61155501 0.34521088-43.61155622 3.5671718-4.37266265c4.48773294-5.63843345 9.09053497-6.90420426 16.68515977-4.71787352l5.63843345 1.72605196v-61.56248678l-5.29322257-0.80549084c-7.36448421-0.92056113-21.74824297-0.69042054-28.65244721 0.69042055zM453.52336317 396.92993119c-8.63025501 1.49591139-17.03037065 4.48773294-25.08527541 8.97546589-9.78095551 5.29322257-25.89076502 21.40303329-31.41412818 31.29905789-13.11798796 23.70443431-12.657708 56.95968355 1.1507005 80.43397848 5.40829286 9.20560526 18.41121053 22.43866351 27.04146676 27.50174671 13.69333821 8.05490476 35.44158117 13.00291766 49.48012903 11.2768669l6.55899338-0.80549085 0.34521088-29.57300834c0.23014059-16.22487981 0.34520966-29.68807743 0.23014058-29.9182168 0-0.11507029-2.30140101 0.57535025-5.0630832 1.49591018-2.64661189 0.92056113-6.90420426 1.72605076-9.43574584 1.72605075-20.36740187 0-28.42230662-27.15653583-11.73714686-39.9293129 3.45210151-2.5315416 5.63843345-3.22196214 11.85221715-3.56717302 9.55081614-0.46027996 14.26868846 1.84112106 19.10163107 9.55081614l3.45210152 5.52336316 0.34521088 41.31015521 0.34520966 41.1950837h58.80080582l-0.57535025-45.79788694c-0.57535025-51.20618101-1.15070051-55.23363279-9.55081614-72.72428339-8.16997505-16.80023006-26.2359759-30.95384822-45.91295724-36.24707202-8.16997505-2.07126164-32.21961902-3.22196214-39.92931411-1.72605075zM824.04898438 396.92993119c-8.63025501 1.49591139-17.03037065 4.48773294-25.08527541 8.97546589-9.78095551 5.29322257-25.89076502 21.40303329-31.41412818 31.29905789-13.11798796 23.70443431-12.657708 56.95968355 1.15070051 80.43397848 5.40829286 9.20560526 18.41121053 22.43866351 27.04146554 27.50174671 13.69333821 8.05490476 35.44158117 13.00291766 49.48013025 11.2768669l6.55899337-0.80549085 0.34521088-29.57300834c0.23014059-16.22487981 0.34520966-29.68807743 0.23013937-29.9182168 0-0.11507029-2.30140101 0.57535025-5.0630832 1.49591018-2.64661189 0.92056113-6.90420426 1.72605076-9.43574464 1.72605075-20.36740187 0-28.42230662-27.15653583-11.73714807-39.9293129 3.45210151-2.5315416 5.63843345-3.22196214 11.85221715-3.56717302 9.55081614-0.46027996 14.26868846 1.84112106 19.10163229 9.55081614l3.45210151 5.52336316 0.34521088 41.31015521 0.34520968 41.1950837h58.8008046l-0.57535025-45.79788694c-0.57535025-51.20618101-1.15070051-55.23363279-9.55081494-72.72428339-8.16997505-16.80023006-26.2359759-30.95384822-45.91295722-36.24707202-8.16997505-2.07126164-32.21961902-3.22196214-39.92931412-1.72605075zM994.35268597 485.99416468c-9.66588522 3.56717181-13.92347879 8.97546589-13.92347878 17.49065061 0 6.55899338 2.87675126 10.81658694 13.80840849 20.13726128 7.01927455 6.09871341 9.55081614 8.97546589 9.55081615 10.93165723 0 5.29322257-9.66588522 6.55899338-20.48247217 2.87675127l-6.09871463-2.07126164 0.69042055 8.7453253c0.46027996 4.83294261 1.03563022 8.86039559 1.15070051 9.09053619 0.11507029 0.23014059 5.63843345 0.69042054 12.31249833 1.03563021 9.09053497 0.46027996 13.34812854 0.23014059 18.18106994-1.15070051 10.93165602-3.22196214 17.26051002-12.08235774 15.30431988-21.63317267-0.80549084-3.91238269-7.70969509-11.62207657-17.83586148-19.79205161-3.10689185-2.41647131-5.52336316-5.29322257-5.52336316-6.5589946 0-5.17815349 9.66588522-7.36448421 18.8714917-4.02745176l4.37266265 1.49591017-0.46027996-7.82476417c-0.23014059-4.37266265-0.80549084-8.28504534-1.15070172-8.7453253-1.72605076-1.61098047-24.50992515-1.72605076-28.7675163 0zM1214.3666572 490.13668674v5.75350375h18.18106995l0.69042054-3.56717181c1.61098047-8.05490476 1.72605076-7.93983446-9.09053498-7.93983568h-9.78095551v5.75350374zM1183.29773869 494.04906943v8.51518472l-6.78913395-0.57535025c-19.10163107-1.72605076-31.75933906 8.51518471-33.25525046 26.81132616-0.92056113 11.62207657 3.10689185 19.67698132 11.73714686 23.58936402 7.70969509 3.56717181 17.03037065 2.41647131 23.7044343-2.7616822l2.87675128-2.18633071 0.34521088 2.99182156c0.34520966 2.87675126 0.57535025 2.99182156 8.86039558 2.99182156h8.40011444l0.69042054-11.85221715c0.34520966-6.44392429 1.15070051-20.59754245 1.84112104-31.4141282 0.57535025-10.81658694 1.15070051-20.82768182 1.15070052-22.20852292 0-2.30140101-0.57535025-2.41647131-9.78095551-2.41647129h-9.78095552v8.5151847z m-1.38084109 26.58118558c0.57535025 6.32885399-1.84112106 14.03854787-5.29322379 16.68515976-6.2137837 4.94801291-14.03854787 1.03563022-14.03854788-7.13434361 0-9.09053497 5.75350374-14.959109 14.38375876-14.38375877 4.48773294 0.23014059 4.60280323 0.34520966 4.94801291 4.83294262zM1308.72411327 489.56133649c0 1.26577081 1.3808411 1.72605076 5.17815228 1.72605076h5.17815348v14.38375876c0 11.96728745 0.23014059 14.38375875 1.72605076 14.38375875s1.72605076-2.41647131 1.72605198-14.38375875V491.28738725h5.75350253c4.37266265 0 5.75350374-0.46027996 5.75350374-1.72605076 0-1.3808411-2.18633072-1.72605076-12.65770799-1.72605076s-12.657708 0.34520966-12.65770678 1.72605076zM1339.79303179 503.94509524c0 13.57826791 0.23014059 16.10980951 1.72605075 16.10980952 1.3808411 0 1.72605076-2.30140101 1.84112105-13.57826792v-13.46319762l5.40829287 13.46319762c3.6822421 9.32067555 5.98364311 13.57826791 7.24941513 13.57826792 1.15070051 0 3.33703244-3.91238269 6.78913396-12.42756741 2.76168219-6.78913396 5.29322257-12.657708 5.63843345-13.11798795 0.34520966-0.46027996 0.57535025 5.0630832 0.34520966 12.31249711-0.34520966 12.657708-0.23014059 13.23305825 1.95619135 13.23305825 2.30140101 0 2.41647131-0.57535025 2.41647131-16.22487981v-16.10980952l-2.99182156 0.34521088c-2.64661189 0.34520966-3.56717181 1.84112106-8.28504534 13.23305704-4.48773294 11.2768669-7.13434484 15.64952955-7.13434363 11.96728746 0-0.57535025-2.07126164-6.55899338-4.71787353-13.23305826-4.14252206-10.81658694-5.0630832-12.19742683-7.4795545-12.19742682h-2.76168097v16.10980951zM1057.29601264 489.56133649c-0.57535025 0.23014059-4.14252206 1.03563022-7.70969388 1.72605076l-6.55899458 1.2657708-0.80548962 5.17815349c-0.69042054 4.83294261-0.92056113 5.0630832-4.48773295 5.0630832h-3.79731241l-0.46027995 6.90420425-0.34521088 6.90420424h7.5946248l-0.80549084 13.8084073c-0.80549084 14.84403871 0 18.98656078 4.37266265 21.74824296 3.22196214 2.07126164 15.30431867 2.99182156 20.48247217 1.61098168 3.6822421-1.03563022 4.02745298-1.3808411 5.17815349-8.05490476l1.26577079-7.01927455-4.48773295 0.69042056c-6.2137837 0.80549084-7.70969509-1.3808411-7.70969386-11.3919372 0-10.58644636 0.46027996-11.39193719 6.32885278-11.39193599 5.63843345 0 6.32885399-0.92056113 6.32885399-8.74532529V502.79439474h-11.50700627v-6.90420425c0-6.55899338-0.23014059-7.24941392-2.87675248-6.328854zM1261.20017436 503.2546747c-19.21670137 5.17815349-26.46611527 28.7675175-13.00291767 42.69099508 13.57826791 14.15361817 42.57592479 10.24123668 50.28561989-6.90420424 2.87675126-6.2137837 2.76168219-16.91530035 0-23.24415315-5.17815349-11.2768669-21.40303329-16.80023006-37.28270222-12.54263769z m17.26051123 16.3399501c2.5315416 2.5315416 2.87675126 3.6822421 2.30140101 8.86039559-0.34520966 4.48773294-1.26577081 6.44392429-3.56717181 8.51518472-6.32885399 5.40829286-15.76459984 1.49591139-15.99474043-6.67406366-0.34520966-11.62207657 9.8960258-17.95093057 17.26051123-10.70151665zM1079.27439619 523.62207657c-0.69042054 17.83586028-0.57535025 21.1728927 1.03563021 23.58936402 2.5315416 4.02745298 6.32885399 6.09871341 12.31249834 6.90420424 7.01927455 1.03563022 12.42756741-0.11507029 17.49064938-3.56717181l4.14252328-2.76168218v2.76168218c0 2.76168219 0.23014059 2.87675126 9.09053496 2.87675127h9.09053619l0.69041933-9.55081494c0.34520966-5.17815349 0.92056113-15.64952955 1.2657708-23.24415434 0.46027996-7.5946248 1.03563022-14.72896842 1.2657708-15.87966893 0.57535025-1.72605076-0.34520966-1.95619135-9.20560526-1.95619134-8.63025501 0-9.8960258 0.23014059-10.0110961 1.95619134-0.34520966 12.657708-2.18633072 27.27160612-3.7973124 29.68807743-3.6822421 5.52336316-12.54263771 4.83294261-14.03854787-1.15070051-0.34520966-1.61098047-0.23014059-9.09053497 0.23014059-16.68515977l1.0356302-13.80840849h-19.79205161l-0.80549084 20.82768183zM1212.87074581 522.58644636c-0.46027996 10.93165602-1.03563022 22.32359322-1.49591138 25.31541477l-0.80548962 5.52336316h20.71261153l0.80549085-22.78387318c0.34520966-12.42756741 1.03563022-23.81950461 1.38084109-25.31541478 0.69042054-2.5315416 0.57535025-2.5315416-9.55081615-2.53154159h-10.35630576l-0.69042056 19.79205162z" fill="#2c2c2c" p-id="1588"></path></svg>