<svg xmlns="http://www.w3.org/2000/svg" xmlns:xlink="http://www.w3.org/1999/xlink" width="400" height="400" viewBox="0 0 400 400" fill="none"><defs><rect id="path_0" x="0" y="0" width="400" height="400" /><linearGradient id="linear_0" x1="50%" y1="100%" x2="51%" y2="0%" gradientUnits="objectBoundingBox"><stop offset="0" stop-color="#0BA360" stop-opacity="1" /><stop offset="1" stop-color="#3CBA92" stop-opacity="1" /></linearGradient><linearGradient id="linear_1" x1="0.33798226210374205%" y1="50%" x2="100.0012819254034%" y2="50%" gradientUnits="objectBoundingBox"><stop offset="0" stop-color="#FDFCFB" stop-opacity="1" /><stop offset="1" stop-color="#E2D1C3" stop-opacity="1" /></linearGradient><filter id="filter_4" x="49" y="94" width="303" height="212" filterUnits="userSpaceOnUse" color-interpolation-filters="sRGB"><feFlood flood-opacity="0" result="BackgroundImageFix"/>
          <feColorMatrix in="SourceAlpha" type="matrix" values="0 0 0 0 0 0 0 0 0 0 0 0 0 0 0 0 0 0 127 0"/>
          <feOffset dx="2" dy="3"/>
          <feGaussianBlur stdDeviation="1.5"/>
          <feColorMatrix type="matrix" values="0 0 0 0 0 0 0 0 0 0 0 0 0 0 0 0 0 0 0.25 0"/>
          <feBlend mode="normal" in2="BackgroundImageFix" result="effect1_Shadow"/>
          <feBlend mode="normal" in="SourceGraphic" in2="effect1_Shadow" result="shape"/></filter></defs><g opacity="1" transform="translate(0 0)  rotate(0 200 200)"><rect fill="#FFFFFF" opacity="0" transform="translate(0 0)  rotate(0 200 200)" x="0" y="0" width="400" height="400" /><mask id="bg-mask-0" fill="white"><use xlink:href="#path_0"></use></mask><g mask="url(#bg-mask-0)" ><path id="多边形 1" fill-rule="evenodd" fill="url(#linear_0)" transform="translate(0 0)  rotate(0 200 200)" opacity="1" d="M184.75,8.8L42.04,91.2C32.61,96.64 26.79,106.71 26.79,117.6L26.79,282.4C26.79,293.29 32.61,303.36 42.04,308.8L184.76,391.2C194.19,396.65 205.82,396.65 215.25,391.2L357.96,308.8C367.39,303.36 373.21,293.29 373.21,282.4L373.21,117.6C373.21,106.71 367.39,96.64 357.96,91.2L215.24,8.8C205.81,3.35 194.18,3.35 184.75,8.8Z " /><g id="路径 1" filter="url(#filter_4)"><path id="路径 1" fill-rule="evenodd" fill="url(#linear_1)" transform="translate(52 97)  rotate(0 148.5 103)" opacity="1" d="M228.66 0C291.71 0 297 73.42 297 73.42C297 73.42 262.35 206 152.62 206C42.9 206 0 73.42 0 73.42L148.16 73.42C171.34 34.99 200.24 0 228.66 0Z" /><path  id="路径 1" style="stroke:#A6A6A6; stroke-width:1; stroke-opacity:1; stroke-dasharray:0 0" transform="translate(52 97)  rotate(0 148.5 103)" d="M148.16,73.42L0,73.42C0,73.42 42.9,206 152.62,206C262.35,206 297,73.42 297,73.42L100.17,172.19C100.17,172.19 119.91,120.25 148.16,73.42Z M297,73.42L148.16,73.42C119.91,120.25 100.17,172.19 100.17,172.19L297,73.42Z M297,73.42C297,73.42 291.71,0 228.66,0C200.24,0 171.34,34.99 148.16,73.42L297,73.42Z " /></g></g></g></svg>