<?xml version="1.0" standalone="no"?><!DOCTYPE svg PUBLIC "-//W3C//DTD SVG 1.1//EN" "http://www.w3.org/Graphics/SVG/1.1/DTD/svg11.dtd"><svg t="1681574155809" class="icon" viewBox="0 0 1024 1024" version="1.1" xmlns="http://www.w3.org/2000/svg" p-id="3180" xmlns:xlink="http://www.w3.org/1999/xlink" width="200" height="200"><path d="M81.870124 616.167454c26.494421 0 48.041156-21.555945 48.041156-48.050366 0-26.495444-21.546735-48.041156-48.041156-48.041156-26.485211 0-48.031946 21.546735-48.031946 48.041156C33.839201 594.611509 55.385936 616.167454 81.870124 616.167454zM81.870124 540.141944c15.422248 0 27.974122 12.551874 27.974122 27.975145 0 15.422248-12.551874 27.984355-27.974122 27.984355s-27.964912-12.561084-27.964912-27.984355C53.906236 552.693818 66.447876 540.141944 81.870124 540.141944z" p-id="3181"></path><path d="M958.93154 615.7172c-31.432896 0-57.007365 25.573445-57.007365 57.007365 0 31.413454 25.574469 56.986899 57.007365 56.986899 31.423687 0 56.986899-25.573445 56.986899-56.986899C1015.918439 641.290645 990.364437 615.7172 958.93154 615.7172zM958.93154 709.644429c-20.370956 0-36.94033-16.559141-36.94033-36.919864 0-20.370956 16.568351-36.94033 36.968983-36.94033 20.342304 0 36.891212 16.568351 36.891212 36.94033C995.851405 693.085288 979.292264 709.644429 958.93154 709.644429z" p-id="3182"></path><path d="M203.869712 488.132406c0.490164 0.068562 0.989537 0.107447 1.470491 0.107447 4.89959 0 9.181103-3.585665 9.915837-8.573259 1.166569-7.90811 2.625804-15.72617 4.350075-23.251563 1.235131-5.398964-2.13564-10.778484-7.534604-12.012591-5.418406-1.274016-10.787694 2.125407-12.022825 7.534604-1.841951 8.04421-3.409656 16.383132-4.644787 24.809035C194.600605 482.223836 198.382744 487.319901 203.869712 488.132406z" p-id="3183"></path><path d="M214.579635 435.328783c1.047866 0.333598 2.106987 0.509606 3.145643 0.509606 4.212952 0 8.132214-2.684132 9.523911-6.898107 14.863523-45.062312 39.536458-85.043908 73.320912-118.839619 3.919263-3.919263 3.919263-10.272971 0-14.187117-3.919263-3.919263-10.268878-3.919263-14.18814 0-36.028565 36.033681-62.336744 78.665641-78.180594 126.736473C206.45663 427.922093 209.317795 433.585069 214.579635 435.328783z" p-id="3184"></path><path d="M337.343633 276.488125c1.959631 0 3.947915-0.573051 5.682419-1.772366 98.924034-68.192102 228.78159-71.239508 330.831824-7.755638 4.683672 2.915399 10.905374 1.488911 13.815657-3.219321 2.929726-4.708232 1.489934-10.895141-3.214205-13.820774-108.830661-67.707055-247.320828-64.458057-352.818581 8.274454-4.565992 3.145643-5.713119 9.391904-2.567475 13.953803C331.022671 274.973632 334.148871 276.488125 337.343633 276.488125z" p-id="3185"></path><path d="M294.034245 695.652763c-3.469008-4.321422-9.778714-5.01727-14.099113-1.549286-4.321422 3.478218-5.007037 9.798157-1.538029 14.110369 7.446599 9.269108 15.59928 18.253736 24.241101 26.700105 1.949398 1.910513 4.487198 2.861164 7.015787 2.861164 2.606361 0 5.212722-1.00898 7.172353-3.01773 3.880377-3.968381 3.801583-10.316973-0.156566-14.187117C308.594869 712.681602 300.981471 704.294584 294.034245 695.652763z" p-id="3186"></path><path d="M686.351422 738.882334c-49.961902 40.016389-110.300129 61.171198-174.499289 61.181431-59.113329 0-115.590622-18.226107-163.318646-52.706409-4.50664-3.242857-10.768251-2.243087-14.011108 2.264577-3.242857 4.487198-2.233877 10.758018 2.25332 14.001899 51.176566 36.968983 111.711268 56.506968 175.076434 56.506968 67.824735-0.010233 134.24754-23.300682 187.04093-65.589834 4.330632-3.469008 5.02648-9.779737 1.557472-14.100136C697.001993 736.12964 690.691263 735.404116 686.351422 738.882334z" p-id="3187"></path><path d="M801.246195 510.678912c-5.54632 0-10.033517 4.487198-10.033517 10.033517 0 72.860425-27.875884 141.801587-78.494749 194.144722-3.850701 3.978614-3.743254 10.338463 0.234337 14.18814 1.949398 1.88186 4.467755 2.822278 6.975878 2.822278 2.625804 0 5.242398-1.019213 7.212262-3.056616 54.253648-56.105832 84.138282-130.004913 84.138282-208.097502C811.279712 515.166109 806.792515 510.678912 801.246195 510.678912z" p-id="3188"></path><path d="M799.708166 500.929874c0.332575 0 0.675382-0.010233 1.028423-0.049119 5.507434-0.568958 9.524934-5.486968 8.966209-10.994402-2.018983-19.811208-6.03546-39.457664-11.963473-58.417481-1.645476-5.291516-7.290033-8.230452-12.561084-6.584975-5.291516 1.645476-8.240685 7.2798-6.584975 12.561084 5.516644 17.675568 9.269108 35.999912 11.140735 54.459333C790.26305 497.078149 794.622334 500.929874 799.708166 500.929874z" p-id="3189"></path><path d="M390.234237 631.462812c10.474562 12.121062 22.663162 22.584368 36.234249 31.128975 1.655709 1.039679 3.507894 1.539053 5.330402 1.539053 3.330862 0 6.594185-1.655709 8.504698-4.693906 2.949168-4.683672 1.538029-10.875698-3.154853-13.8351-11.885701-7.477298-22.555715-16.648169-31.726585-27.259854-3.645017-4.212952-9.975189-4.644787-14.158465-1.038656C387.079384 620.929922 386.609687 627.269303 390.234237 631.462812z" p-id="3190"></path><path d="M474.127949 682.737616c12.404518 3.01773 25.230638 4.53734 38.116109 4.53734 27.78788 0 55.194066-7.191796 79.258135-20.801768 4.820796-2.724041 6.525624-8.838296 3.792373-13.668301-2.724041-4.831029-8.857738-6.525624-13.668301-3.791349-30.836309 17.430998-68.529793 22.535249-102.775758 14.227026-5.379521-1.333368-10.80816 2.00875-12.110829 7.388271C465.43701 676.015517 468.739219 681.444157 474.127949 682.737616z" p-id="3191"></path><path d="M622.004905 640.066771c2.65548 0 5.310959-1.047866 7.2798-3.1262 6.976902-7.358595 13.277398-15.393595 18.72548-23.868617 2.988054-4.66423 1.636267-10.876722-3.027963-13.875009s-10.866489-1.627057-13.864776 3.01773c-4.771677 7.437389-10.288321 14.47262-16.393365 20.910239-3.811816 4.027733-3.645017 10.376325 0.372483 14.187117C617.046986 639.155005 619.526457 640.066771 622.004905 640.066771z" p-id="3192"></path><path d="M653.438824 526.003945c0 7.936763-0.666172 15.922644-1.989307 23.750937-0.919952 5.457292 2.762927 10.640338 8.230452 11.562337 0.558725 0.088004 1.127683 0.137123 1.676176 0.137123 4.810562 0 9.054213-3.469008 9.886161-8.367575 1.500167-8.91709 2.263553-18.028609 2.263553-27.082822-0.010233-16.363689-2.449795-32.492018-7.250124-47.933709-1.6465-5.291516-7.251148-8.270361-12.561084-6.604418-5.291516 1.645476-8.250918 7.269567-6.604418 12.561084C651.291928 497.538637 653.428591 511.668449 653.438824 526.003945z" p-id="3193"></path><path d="M607.483166 339.28638c14.011108 7.250124 27.229155 16.141632 39.281655 26.430976 1.892093 1.611707 4.203742 2.39556 6.516414 2.39556 2.831488 0 5.643534-1.195222 7.632841-3.51301 3.595898-4.218068 3.095501-10.553357-1.11745-14.149255-13.218046-11.277858-27.709085-21.032012-43.084261-28.988218-4.957919-2.567475-10.983145-0.621147-13.520945 4.301979C600.644411 330.683445 602.565157 336.738347 607.483166 339.28638z" p-id="3194"></path><path d="M512.244059 316.176033c23.457248 0 46.463218 3.880377 68.382437 11.537777 5.26184 1.826602 10.954493-0.926092 12.786211-6.167466 1.822508-5.232165-0.930185-10.954493-6.16235-12.782118-24.054859-8.397251-49.285496-12.654204-75.006298-12.654204-89.106434 0-170.462347 52.450583-207.274764 133.62537-6.5553 14.47262-11.601222 29.707602-15.001669 45.287439-1.175779 5.418406 2.25332 10.759041 7.67275 11.945053 0.724501 0.155543 1.440815 0.225127 2.145873 0.225127 4.615111 0 8.769734-3.203972 9.798157-7.897877 3.087315-14.19735 7.692193-28.091802 13.668301-41.280172C356.813057 364.002294 430.995593 316.176033 512.244059 316.176033z" p-id="3195"></path><path d="M294.808888 513.540076c-5.54632 0-10.033517 4.487198-10.033517 10.033517 0 7.92653 0.421602 15.991206 1.24434 23.966854 0.539282 5.163603 4.89959 8.994861 9.975189 8.994861 0.342808 0 0.695848-0.010233 1.048889-0.049119 5.506411-0.577145 9.513678-5.506411 8.945743-11.023054-0.76441-7.28901-1.147126-14.657838-1.147126-21.889543C304.841382 518.027274 300.354184 513.540076 294.808888 513.540076z" p-id="3196"></path><path d="M643.071709 384.809179c0.372483-3.311419-0.940418-6.604418-3.488451-8.760524-35.812647-30.365588-80.718393-47.086411-126.428458-47.086411-107.46864 0-194.908108 87.768973-194.908108 195.658192 0 4.704139 0.402159 9.80839 0.793062 14.511505l0.274246 3.459798c0.254803 3.360538 2.175549 6.378268 5.124717 8.014534 1.518586 0.842181 3.194762 1.263783 4.880147 1.263783 1.587148 0 3.184529-0.372483 4.634554-1.13587l303.777655-158.1356C640.690476 391.060557 642.699226 388.140041 643.071709 384.809179zM334.141708 525.837146c0-0.402159 0-0.813528 0-1.215688 0-96.817046 80.521918-175.591157 176.927595-175.591157 36.017308 0 70.480214 11.619642 100.403734 32.976042L334.141708 525.837146z" p-id="3197"></path><path d="M449.661721 527.943111c1.557472 0 3.145643-0.372483 4.625344-1.13587L658.74876 420.367023c4.9088-2.557242 6.819313-8.613168 4.26207-13.532201s-8.612145-6.839779-13.532201-4.272303L445.016935 509.002736c-4.9088 2.557242-6.820336 8.613168-4.26207 13.532201C442.538487 525.973246 446.036147 527.943111 449.661721 527.943111z" p-id="3198"></path><path d="M1022.532067 258.371512c-2.547009-4.919033-8.612145-6.839779-13.531178-4.267187l-42.986023 22.37459c-142.908804 62.542428-247.428276 51.685149-262.850523 37.476543-53.283554-49.078789-122.54808-73.870428-195.025789-73.870428-0.010233 0-0.010233 0-0.020466 0-76.897368 0-149.20009 27.711132-203.580628 82.092693-54.380538 54.379515-84.334757 124.374682-84.334757 201.282283 0 13.531178 0.940418 27.075659 2.78237 40.176025 2.664689 19.028379-68.167542 117.531833-178.065512 186.78715l-38.752606 20.194948c-3.01773 1.567705-4.722558 4.502547-5.134951 7.648191-1.00898 2.597151-1.038656 5.548366 0.333598 8.223289 1.783623 3.448542 5.291516 5.430686 8.9263 5.430686 1.548262 0 3.125177-0.343831 4.595668-1.096984l266.358417-137.538493c45.248553 86.548168 135.609561 141.889591 233.847979 141.889591 145.476279 0 263.84006-118.354572 263.860527-263.84006 0-41.701774-10.034541-82.884732-28.866445-119.81483l88.243787-45.935192 179.221848-92.545766c0.098237-0.049119 0.195451-0.024559 0.294712-0.073678 2.62478-1.360997 4.321422-3.698229 5.016247-6.319939C1023.894088 264.034489 1023.923764 261.055644 1022.532067 258.371512zM515.09499 775.10635c-93.946672 0-180.162266-54.724369-220.364897-139.557476-0.147356-1.127683-0.402159-2.254344-0.959861-3.331885-2.548032-4.89959-8.613168-6.839779-13.531178-4.26207l-133.924175 69.714781c60.171428-55.281047 99.933013-111.975281 96.5428-136.177496-1.714038-12.1886-2.586918-24.153096-2.586918-36.742832 0-71.557756 27.866674-137.586588 78.455863-188.184987 50.589189-50.589189 117.844965-76.012208 189.392488-76.012208 0.010233 0 0.020466 0 0.020466 0 67.431785 0 131.865283 22.709211 181.426049 68.360947 18.381649 16.926508 83.364663 22.245653 171.490769 2.227738l-21.282722 11.069103-107.987457 55.773258c-1.302669 0.675382-2.361791 1.613754-3.214205 2.702552-3.2623 2.988054-4.399193 7.779174-2.25332 11.904121 0.901533 1.733481 2.24411 3.086291 3.821025 4.007267 18.764366 35.126009 28.748764 74.68191 28.748764 114.738207C758.869039 665.747663 649.509329 775.10635 515.09499 775.10635z" p-id="3199"></path><path d="M423.255305 520.320503l-100.050694 52.087309c-4.9088 2.567475-6.819313 8.623401-4.26207 13.541411 1.783623 3.429099 5.281283 5.39794 8.906857 5.39794 1.557472 0 3.145643-0.36225 4.625344-1.12666l100.050694-52.088332c4.9088-2.567475 6.820336-8.622378 4.26207-13.540388C434.239474 519.682983 428.173314 517.753027 423.255305 520.320503z" p-id="3200"></path><path d="M174.278767 721.813586l-100.050694 52.087309c-4.9088 2.567475-6.819313 8.623401-4.26207 13.541411 1.783623 3.429099 5.281283 5.39794 8.906857 5.39794 1.557472 0 3.145643-0.36225 4.625344-1.12666l100.050694-52.088332c4.9088-2.567475 6.820336-8.622378 4.26207-13.540388C185.252703 721.166857 179.1978 719.256344 174.278767 721.813586z" p-id="3201"></path><path d="M852.933391 368.534518l-47.855938 24.917506c-4.9088 2.557242-6.819313 8.612145-4.26207 13.531178 1.782599 3.439332 5.281283 5.398964 8.905834 5.398964 1.557472 0 3.145643-0.36225 4.625344-1.13587l47.855938-24.908296c4.9088-2.567475 6.819313-8.622378 4.26207-13.540388C863.906304 367.886765 857.851401 365.972159 852.933391 368.534518z" p-id="3202"></path><path d="M918.669558 345.624738c-2.547009-4.9088-8.612145-6.838755-13.531178-4.267187l-21.753443 11.32186c-4.9088 2.562359-6.819313 8.617261-4.26207 13.537318 1.783623 3.433192 5.281283 5.403057 8.906857 5.403057 1.557472 0 3.14462-0.37146 4.625344-1.13587l21.75242-11.32186C919.316288 356.599697 921.2268 350.544795 918.669558 345.624738z" p-id="3203"></path><path d="M944.586834 342.176197c1.556449 0 3.14462-0.36225 4.624321-1.130753l30.444383-15.848966c4.9088-2.562359 6.819313-8.618285 4.26207-13.537318-2.557242-4.913916-8.613168-6.829546-13.532201-4.267187l-30.443359 15.848966c-4.9088 2.562359-6.819313 8.617261-4.26207 13.537318C937.462576 340.211449 940.96126 342.176197 944.586834 342.176197z" p-id="3204"></path><path d="M675.875836 410.187173c1.557472 0 3.14462-0.372483 4.625344-1.136893l17.402345-9.054213c4.9088-2.567475 6.819313-8.622378 4.26207-13.540388s-8.613168-6.839779-13.532201-4.272303l-17.401322 9.063423c-4.909823 2.557242-6.820336 8.612145-4.263094 13.531178C668.752602 408.217309 672.250262 410.187173 675.875836 410.187173z" p-id="3205"></path><path d="M288.410154 590.534658l-13.051247 6.780427c-4.919033 2.558265-6.829546 8.613168-4.282536 13.532201 1.792832 3.439332 5.291516 5.398964 8.916067 5.398964 1.557472 0 3.13541-0.353041 4.615111-1.127683l13.051247-6.79066c4.919033-2.547009 6.829546-8.602935 4.282536-13.521968C299.37488 589.887928 293.318954 587.958996 288.410154 590.534658z" p-id="3206"></path><path d="M741.320361 366.06528c-2.557242-4.909823-8.623401-6.839779-13.532201-4.267187l-13.06148 6.803963c-4.919033 2.557242-6.819313 8.613168-4.26207 13.532201 1.782599 3.438309 5.281283 5.39794 8.906857 5.39794 1.556449 0 3.14462-0.36225 4.625344-1.13587l13.06148-6.800893C741.966067 377.038192 743.877603 370.983289 741.320361 366.06528z" p-id="3207"></path><path d="M707.711915 410.4123 318.540382 611.406011c-4.919033 2.547009-6.848988 8.602935-4.311189 13.521968 1.783623 3.448542 5.290493 5.428639 8.9263 5.428639 1.548262 0 3.1262-0.353041 4.595668-1.11745l16.07921-8.308223c34.901905 60.132542 99.257631 97.405447 168.806637 97.405447 107.625206 0 195.182354-87.557148 195.182354-195.183378 0-28.336372-5.995551-55.576783-17.675568-81.080643l26.7789-13.82589c4.919033-2.536776 6.848988-8.592702 4.311189-13.521968C718.684828 409.804457 712.620715 407.864268 707.711915 410.4123zM687.752328 523.151991c0 96.563266-78.5541 175.116343-175.116343 175.116343-62.062498 0-119.510908-33.108049-150.943804-86.558401L672.182724 451.349665C682.38304 473.963709 687.752328 498.058476 687.752328 523.151991z" p-id="3208"></path><path d="M239.536027 687.853124l-30.453592 15.83464c-4.9088 2.566452-6.820336 8.622378-4.263094 13.540388 1.783623 3.430122 5.281283 5.398964 8.906857 5.398964 1.557472 0 3.145643-0.36225 4.625344-1.127683l30.453592-15.84385c4.9088-2.557242 6.819313-8.612145 4.26207-13.531178C250.519172 687.206394 244.455059 685.285648 239.536027 687.853124z" p-id="3209"></path></svg>